<?xml version="1.0" encoding="UTF-8" standalone="no"?>
<!-- Created with Inkscape (http://www.inkscape.org/) -->

<svg
   version="1.1"
   id="svg2"
   width="192"
   height="192"
   viewBox="0 0 192 192"
   sodipodi:docname="logo.svg"
   inkscape:version="1.1.2 (0a00cf5339, 2022-02-04)"
   xmlns:inkscape="http://www.inkscape.org/namespaces/inkscape"
   xmlns:sodipodi="http://sodipodi.sourceforge.net/DTD/sodipodi-0.dtd"
   xmlns="http://www.w3.org/2000/svg"
   xmlns:svg="http://www.w3.org/2000/svg">
  <defs
     id="defs6" />
  <sodipodi:namedview
     id="namedview4"
     pagecolor="#ffffff"
     bordercolor="#666666"
     borderopacity="1.0"
     inkscape:pageshadow="2"
     inkscape:pageopacity="0.0"
     inkscape:pagecheckerboard="0"
     showgrid="false"
     inkscape:zoom="4.546875"
     inkscape:cx="97.979381"
     inkscape:cy="95.890034"
     inkscape:window-width="2560"
     inkscape:window-height="1357"
     inkscape:window-x="1080"
     inkscape:window-y="240"
     inkscape:window-maximized="1"
     inkscape:current-layer="g8" />
  <g
     inkscape:groupmode="layer"
     inkscape:label="Image"
     id="g8">
    <ellipse
       style="fill:#ffffff;fill-opacity:1"
       id="path26670"
       cx="95.428955"
       cy="96.462746"
       rx="59.546444"
       ry="58.691849" />
    <path
       style="fill:#4aad4e;fill-opacity:1"
       d="M 80.713459,183.41316 C 41.262225,176.25434 12.948369,145.93498 8.4990965,106.08377 2.7330295,54.438277 43.110106,9.5891184 95.371886,9.5891184 c 33.515194,0 63.100694,18.1277886 78.017834,47.8035066 11.47953,22.83704 12.82203,46.440835 4.01405,70.575255 -8.39313,22.99772 -27.94864,42.55976 -50.92989,50.94687 -15.3866,5.61542 -31.094962,7.15961 -45.760421,4.49841 z m 28.719421,-43.04443 c 17.7484,-6.95555 28.95463,-23.93501 28.92819,-43.83144 -0.0215,-16.184077 -7.17473,-30.014625 -19.94193,-38.557193 -8.97305,-6.003889 -14.20067,-7.587472 -25.047254,-7.587472 -13.309779,0 -22.201951,3.64932 -31.466305,12.913673 -4.92251,4.92251 -9.979977,13.055211 -9.052176,14.556424 0.350083,0.566447 2.872683,1.029903 5.605777,1.029903 4.735897,0 5.209536,-0.258159 10.085643,-5.497226 2.953782,-3.173652 7.485652,-6.660773 10.721721,-8.25 4.815632,-2.36495 6.802862,-2.746727 14.10534,-2.709851 9.943514,0.05021 14.958604,1.91964 22.033704,8.213306 11.5327,10.258921 14.6028,27.9007 7.4113,42.587676 -3.37893,6.90067 -8.70582,11.95715 -16.32499,15.49629 -8.138664,3.78045 -19.469949,3.69107 -27.456894,-0.21658 -6.49459,-3.17751 -13.348071,-9.52017 -14.274242,-13.21033 -1.192432,-4.75103 0.283704,-10.5474 3.506895,-13.77059 2.637604,-2.637611 3.916017,-3.0996 9.574149,-3.459882 l 6.530078,-0.415804 v 4.557486 c 0,2.50661 0.340278,4.76778 0.756174,5.02482 0.965373,0.59663 18.74383,-13.883054 18.74383,-15.265937 0,-1.480768 -17.626726,-16.123094 -18.648845,-15.491389 -0.468138,0.289325 -0.851159,2.465309 -0.851159,4.835521 v 4.309476 l -7.394293,0.474536 c -11.684058,0.749838 -19.427017,6.361961 -23.086089,16.732883 -2.050398,5.81144 -1.911719,10.93259 0.46831,17.29379 3.798421,10.15219 17.742473,20.55073 31.012072,23.12672 5.464127,1.06074 17.745494,-0.41379 24.060994,-2.88881 z"
       id="path11781" />
  </g>
</svg>
